<?xml version="1.0" encoding="UTF-8"?> <svg xmlns="http://www.w3.org/2000/svg" width="442" height="442" viewBox="0 0 442 442"><g fill="#E7303C" fill-rule="evenodd"><path d="M203.947574,171.72912 C188.505524,171.72912 146.481086,187.270941 89.2351983,331.335908 C86.2460585,339.062729 90.0293609,347.759535 97.7283262,350.845854 C105.339051,353.921151 113.997629,350.250636 117.07501,342.645063 C117.08604,342.578928 117.11913,342.523815 117.14119,342.468702 C142.841174,277.876452 183.431707,206.009307 202.844571,201.930957 L203.947574,201.820731 L368.736314,201.820731 C377.019871,201.820731 383.737163,195.107987 383.737163,186.830038 C383.737163,178.55209 377.019871,171.839346 368.736314,171.839346 L203.947574,171.839346 L203.947574,171.72912 Z"></path><path d="M165.121847,92.918859 C164.305624,92.8968138 163.500432,92.9298815 162.695239,93.0290847 C153.418979,93.9990707 145.775164,100.722837 143.613276,109.783388 L86.69829,337.178972 C85.7497069,341.069938 86.3342988,345.181356 88.3527954,348.642443 C90.4043822,352.059439 93.7354531,354.517472 97.6180258,355.476435 C98.7982397,355.79609 100.033604,355.950406 101.257938,355.917338 C108.17377,355.851202 114.19617,351.155588 115.927886,344.453867 L167.658755,137.56026 L205.932981,214.056884 C209.120661,220.438951 214.84525,225.189678 221.705932,227.17374 C228.610735,229.135758 236.033949,228.187817 242.2218,224.528324 L280.054823,201.821833 L371.935024,201.821833 C380.218582,201.821833 386.935874,195.109089 386.935874,186.831141 C386.935874,178.553192 380.218582,171.840448 371.935024,171.840448 L280.385725,171.840448 C274.683196,171.862493 269.090968,173.383607 264.171571,176.249475 L230.640262,196.420775 L185.086212,105.264135 C181.35806,97.6585633 173.592915,92.8637461 165.121847,92.918859"></path><path d="M221.041924,0.55194139 C99.0828146,0.430693139 0.121330397,99.1267694 4.60476926e-14,221.003307 C-0.121330397,342.879844 98.6416131,441.774327 220.600723,441.895575 C342.559832,442.016823 441.521316,343.320747 441.642647,221.44421 L441.642647,221.223758 C441.730887,99.4354013 343.023094,0.640121936 221.152224,0.55194139 L221.041924,0.55194139 Z M221.041924,12.2358638 C336.515372,12.0815478 430.237589,105.497814 430.39201,220.893081 C430.54643,336.277326 337.066874,429.947111 221.593426,430.101427 C106.131008,430.24472 12.3977606,336.828454 12.2433401,221.44421 L12.2433401,221.223758 C12.2433401,105.927694 105.678776,12.4122248 221.041924,12.2358638 L221.041924,12.2358638 Z"></path></g></svg> 